# xmcd CD database file
#
# Track frame offsets:
#	150
#	25637
#	51739
#	73387
#	95649
#	116111
#	137102
#	158511
#	180854
#	206045
#	231586
#	249914
#
# Disc length: 3848 seconds
#
# Revision: 0
# Processed by: cddbd v1.5.2PL0 Copyright (c) Steve Scherf et al.
# Submitted via: CDex 1.51
#
DISCID=ad0f060c
DTITLE=Eddie Gomez/Mark Kramer - Art of the Heart
DYEAR=2004
DGENRE=Jazz
TTITLE0=Wonderful, Wonderful
TTITLE1=Moment to Moment
TTITLE2=Chances are
TTITLE3=Call Me Irresponsible
TTITLE4=Hello Young Lovers
TTITLE5=They Say It's Wonderful
TTITLE6=Smile
TTITLE7=Easy to Love
TTITLE8=Small World
TTITLE9=It's Not For Me To Say
TTITLE10=If I Loved You
TTITLE11=I'll Be Seeing You
EXTD=YEAR: 2004
EXTT0=
EXTT1=
EXTT2=
EXTT3=
EXTT4=
EXTT5=
EXTT6=
EXTT7=
EXTT8=
EXTT9=
EXTT10=
EXTT11=
PLAYORDER=
